<?xml version="1.0" standalone="no"?>
<!DOCTYPE svg PUBLIC "-//W3C//DTD SVG 20010904//EN"
 "http://www.w3.org/TR/2001/REC-SVG-20010904/DTD/svg10.dtd">
<svg version="1.0" xmlns="http://www.w3.org/2000/svg"
 width="492.000000pt" height="492.000000pt" viewBox="0 0 492.000000 492.000000"
 preserveAspectRatio="xMidYMid meet">
<metadata>
Created by potrace 1.11, written by Peter Selinger 2001-2013
</metadata>
<g transform="translate(0.000000,492.000000) scale(0.100000,-0.100000)"
fill="#000000" stroke="none">
<path d="M204 3996 c28 -327 248 -593 568 -687 65 -19 102 -22 352 -25 154 -2
282 -6 285 -10 3 -3 6 -560 6 -1237 l1 -1232 397 -3 397 -2 0 1630 0 1630
-1006 0 -1006 0 6 -64z"/>
<path d="M2457 4053 c-3 -5 -4 -738 -4 -1630 l0 -1623 1165 0 1165 0 -6 78
c-17 225 -151 445 -347 573 -30 19 -71 43 -90 51 -61 28 -110 47 -110 43 0 -1
-21 4 -47 12 -48 16 -220 21 -750 22 l-183 1 0 235 0 235 214 0 c228 0 253 4
299 48 59 56 61 65 62 335 1 285 -4 306 -84 362 l-43 30 -196 2 c-109 1 -209
3 -224 3 l-28 0 0 225 0 225 43 0 c643 3 784 7 847 25 323 88 558 369 583 694
l5 61 -1133 0 c-624 0 -1136 -3 -1138 -7z"/>
</g>
</svg>
